<?xml version="1.0" encoding="UTF-8" standalone="no"?>
<!-- Created with Inkscape (http://www.inkscape.org/) -->

<svg
   width="128"
   height="128"
   viewBox="0 0 33.866666 33.866666"
   version="1.1"
   id="svg5"
   xml:space="preserve"
   inkscape:version="1.2.1 (2ed6d7ae0b, 2022-08-22, custom)"
   sodipodi:docname="seasand.svg"
   xmlns:inkscape="http://www.inkscape.org/namespaces/inkscape"
   xmlns:sodipodi="http://sodipodi.sourceforge.net/DTD/sodipodi-0.dtd"
   xmlns="http://www.w3.org/2000/svg"
   xmlns:svg="http://www.w3.org/2000/svg"><sodipodi:namedview
     id="namedview7"
     pagecolor="#ffffff"
     bordercolor="#000000"
     borderopacity="0.25"
     inkscape:showpageshadow="2"
     inkscape:pageopacity="0.0"
     inkscape:pagecheckerboard="true"
     inkscape:deskcolor="#d1d1d1"
     inkscape:document-units="px"
     showgrid="true"
     showguides="true"
     inkscape:zoom="6.1933633"
     inkscape:cx="18.487532"
     inkscape:cy="54.816742"
     inkscape:window-width="1920"
     inkscape:window-height="978"
     inkscape:window-x="0"
     inkscape:window-y="0"
     inkscape:window-maximized="1"
     inkscape:current-layer="layer1"
     inkscape:lockguides="true"><inkscape:grid
       type="xygrid"
       id="grid9"
       empspacing="32" /><sodipodi:guide
       position="0,33.866666"
       orientation="0,128"
       id="guide402"
       inkscape:locked="true" /><sodipodi:guide
       position="33.866666,33.866666"
       orientation="128,0"
       id="guide404"
       inkscape:locked="true" /><sodipodi:guide
       position="33.866666,0"
       orientation="0,-128"
       id="guide406"
       inkscape:locked="true" /><sodipodi:guide
       position="0,0"
       orientation="-128,0"
       id="guide408"
       inkscape:locked="true" /></sodipodi:namedview><defs
     id="defs2"><linearGradient
       id="linearGradient6446"
       inkscape:swatch="gradient"><stop
         style="stop-color:#ffd42a;stop-opacity:1;"
         offset="0"
         id="stop6442" /><stop
         style="stop-color:#ffd42a;stop-opacity:0;"
         offset="1"
         id="stop6444" /></linearGradient></defs><g
     inkscape:label="Layer 1"
     inkscape:groupmode="layer"
     id="layer1"><rect
       style="mix-blend-mode:normal;fill:#ffff00;fill-opacity:1;stroke-width:0.264583"
       id="rect612"
       width="33.866665"
       height="33.866665"
       x="0"
       y="0" /><path
       id="path464"
       style="fill:#0000ff;stroke:#ffffff;stroke-width:1.05833;stroke-dasharray:none;stroke-opacity:1;stroke-linejoin:miter;stroke-dashoffset:0"
       d="M -4.2333332,-4.2333332 V 4.2333332 H 0 c 2.9104166,0 4.2333332,1.3229167 4.2333332,4.2333333 v 0.013966 C 4.2333332,11.377083 5.5562499,12.7 8.4666665,12.7 11.377083,12.7 12.7,11.377083 12.7,8.4666665 V -4.2333332 Z M 21.166666,0 c 0,2.9104166 1.322917,4.2333332 4.233333,4.2333332 h 12.7 V -4.2333332 H 21.166666 Z M 0,12.7 H -4.2333332 V 38.099999 H 12.7 v -4.233333 c 0,-2.910417 1.322916,-4.233333 4.233333,-4.233333 2.910417,0 4.233333,-1.322917 4.233333,-4.233334 0,-2.910416 -1.322916,-4.233333 -4.233333,-4.233333 H 8.4666665 c -2.9104166,0 -4.2333334,-1.322916 -4.2333333,-4.233333 C 4.2333332,14.022916 2.9104166,12.7 0,12.7 Z m 33.866666,0 c -2.910417,0 -4.233333,1.322916 -4.233333,4.233333 v 8.466666 c 0,2.910417 -1.322917,4.233334 -4.233334,4.233334 -2.910416,0 -4.233333,1.322916 -4.233333,4.233333 v 4.233333 H 38.099999 V 12.7 Z"
       inkscape:label="water"
       sodipodi:nodetypes="cccsssscccscccccccccsssssccsssccccc" /></g></svg>
